<svg xmlns="http://www.w3.org/2000/svg" width="1920" height="1080" viewBox="0 0 1920 1080">
<defs><radialGradient id="sky" cx="82%" cy="49%" r="88%"><stop stop-color="#185e43"/><stop offset=".48" stop-color="#0a2927"/><stop offset="1" stop-color="#040c15"/></radialGradient><linearGradient id="glow"><stop stop-color="#21d873" stop-opacity="0"/><stop offset=".65" stop-color="#4fdb8d" stop-opacity=".5"/><stop offset="1" stop-color="#afffd1" stop-opacity=".8"/></linearGradient><linearGradient id="cup"><stop stop-color="#57a882" stop-opacity=".15"/><stop offset=".5" stop-color="#c8fadd" stop-opacity=".44"/><stop offset="1" stop-color="#208653" stop-opacity=".14"/></linearGradient></defs>
<path fill="url(#sky)" d="M0 0h1920v1080H0z"/>
<g fill="none" stroke="url(#glow)"><path d="M-170 970Q1320 1210 2000 120" stroke-width="3"/><path d="M120 1110Q1280 860 1860 -90" stroke-width="8" opacity=".22"/><path d="M-120 880Q1150 1130 2030 340" stroke-width="1"/><path d="M1120 1120Q1420 510 2000 240" stroke-width="2"/></g>
<g transform="translate(1480 244)"><path d="M-150 0H150L105 300Q85 350 28 370V434L95 488H-95L-28 434V370Q-85 350-105 300Z" fill="url(#cup)" stroke="#97e7b8" stroke-opacity=".4" stroke-width="2"/><g fill="none" stroke="#95f0bc" stroke-opacity=".3"><path d="M-120 0L-84 296Q-70 344-28 370M-88 0L-56 299Q-49 335-14 370M-55 0L-28 298Q-20 345 0 370M-20 0L0 370M20 0L0 370M55 0L28 298Q20 345 0 370M88 0L56 299Q49 335 14 370M120 0L84 296Q70 344 28 370"/><path d="M-95 488H95M-28 434H28"/></g></g>
<path d="M0 1020Q960 760 1920 1020V1080H0z" fill="#051319" opacity=".7"/>
</svg>
